<?xml version="1.0" standalone="no"?>
<!DOCTYPE svg PUBLIC "-//W3C//DTD SVG 20010904//EN"
 "http://www.w3.org/TR/2001/REC-SVG-20010904/DTD/svg10.dtd">
<svg version="1.0" xmlns="http://www.w3.org/2000/svg"
 width="500.000000pt" height="500.000000pt" viewBox="0 0 500.000000 500.000000"
 preserveAspectRatio="xMidYMid meet">

<g transform="translate(0.000000,500.000000) scale(0.100000,-0.100000)"
fill="#FFFFFF" stroke="none">
<path d="M3845 3868 c-441 -179 -465 -189 -465 -199 0 -4 19 -13 43 -19 70
-19 107 -33 107 -44 0 -5 -18 -26 -40 -46 -29 -27 -40 -45 -40 -66 0 -70 60
-74 130 -8 34 32 51 42 54 33 3 -8 12 -45 22 -84 9 -38 20 -76 24 -84 9 -17
21 4 114 214 37 83 83 185 102 227 47 103 41 113 -51 76z"/>
<path d="M2289 3715 c-186 -31 -416 -128 -549 -230 -52 -40 -58 -49 -74 -107
-34 -126 -25 -131 77 -45 370 315 891 366 1334 131 85 -46 105 -53 126 -45 31
12 42 44 27 80 -27 66 -302 182 -513 216 -110 18 -322 18 -428 0z"/>
<path d="M1456 3547 c-45 -43 -75 -109 -76 -165 0 -53 -15 -47 -31 11 -7 29
-27 58 -63 93 -43 42 -64 54 -120 69 -59 16 -77 17 -125 7 -72 -15 -95 -41
-88 -98 15 -137 129 -239 290 -259 31 -4 55 -11 52 -15 -2 -4 -35 -9 -72 -12
-84 -6 -163 -39 -203 -85 -58 -65 -33 -98 74 -97 83 0 162 32 210 82 l29 31
37 -30 c40 -32 127 -69 163 -69 24 0 67 33 67 51 0 26 -26 53 -68 71 -26 11
-62 32 -80 45 l-33 25 42 41 c57 57 91 134 96 216 7 115 -34 151 -101 88z"/>
<path d="M3304 3385 c-33 -51 22 -114 75 -86 26 15 37 55 22 87 -15 35 -74 34
-97 -1z"/>
<path d="M3460 3240 c-30 -30 -25 -48 33 -126 29 -38 70 -100 90 -136 71 -126
137 -370 137 -503 0 -63 23 -97 63 -97 15 0 37 8 48 18 20 18 21 26 14 109
-17 227 -93 444 -220 635 -78 115 -123 142 -165 100z"/>
<path d="M2053 3220 c-63 -20 -123 -130 -107 -198 11 -44 55 -126 77 -142 11
-8 33 -23 50 -32 l29 -17 -43 -11 c-24 -6 -73 -20 -108 -31 -64 -19 -65 -19
-125 0 -186 60 -236 65 -270 32 -20 -20 -21 -33 -24 -204 -4 -201 2 -229 48
-255 l30 -17 0 -202 0 -203 -265 0 -266 0 -24 -25 c-43 -42 -27 -88 35 -105
26 -7 126 -9 276 -7 168 3 236 1 238 -7 19 -72 33 -86 104 -101 l32 -7 0 301
c0 166 3 301 7 301 4 0 37 -10 74 -22 l68 -22 3 -363 c3 -347 4 -363 23 -382
19 -19 219 -101 382 -158 83 -28 114 -24 134 20 19 42 -3 72 -73 99 l-63 24
-3 499 -2 500 150 -3 150 -3 0 -483 c0 -455 1 -484 18 -499 23 -21 52 -22 78
-3 18 14 19 34 24 516 l5 502 125 39 c69 21 126 39 128 39 1 0 2 -242 2 -538
0 -509 1 -540 18 -555 24 -22 65 -21 85 1 15 16 17 61 19 381 2 231 6 365 13
370 11 9 133 51 147 51 4 0 9 -134 10 -297 l3 -298 44 2 c83 4 81 -5 81 340 0
245 3 303 13 303 8 0 24 12 38 26 24 25 24 28 24 223 0 212 -2 223 -53 242
-26 10 -80 -2 -224 -48 l-78 -25 -62 21 c-35 11 -83 25 -108 31 l-45 12 30 15
c63 32 114 104 128 180 17 87 -51 186 -138 198 -111 17 -204 -36 -340 -194
-33 -39 -64 -71 -70 -71 -5 0 -55 47 -111 104 -55 57 -122 116 -147 131 -52
30 -140 41 -194 25z m143 -139 c21 -16 64 -54 94 -85 l54 -56 -82 0 c-95 0
-153 19 -182 60 -25 36 -25 65 0 90 28 28 70 25 116 -9z m719 4 c29 -28 30
-36 11 -74 -27 -51 -61 -65 -171 -69 l-100 -4 55 57 c111 115 159 136 205 90z
m-195 -334 c74 -24 138 -46 143 -50 4 -4 -53 -26 -126 -49 -127 -40 -139 -42
-263 -42 -125 0 -132 1 -253 42 -68 23 -118 44 -110 47 8 3 82 26 164 51 197
61 251 61 445 1z m622 -171 c-2 -63 -7 -117 -10 -120 -16 -13 -214 -71 -227
-66 -10 4 -13 31 -12 118 l2 113 110 37 c61 20 117 36 125 35 12 -2 14 -21 12
-117z m-1539 68 l87 -31 0 -113 0 -113 -47 15 c-27 7 -77 25 -113 38 l-65 24
-3 112 -3 112 28 -6 c-15 -4 -67 -21 -116 -38z m294 -99 l61 -20 7 -252 c6
-218 1 -724 -7 -733 -2 -1 -33 7 -68 20 l-65 22 -3 492 c-1 271 1 492 6 492 4
0 35 -9 69 -21z"/>
<path d="M1304 2891 c-45 -20 -55 -38 -93 -168 -24 -79 -20 -102 20 -124 15
-8 28 -8 49 1 23 9 31 24 49 83 12 40 33 101 47 136 19 49 22 66 13 77 -15 19
-36 17 -85 -5z"/>
<path d="M1186 2448 c-29 -41 -14 -303 20 -370 19 -37 62 -41 98 -10 15 14 17
25 11 67 -4 28 -10 107 -14 177 -5 79 -12 133 -20 142 -20 24 -77 20 -95 -6z"/>
<path d="M3800 2235 c-25 -8 -65 -31 -88 -50 l-42 -37 -20 47 c-16 38 -24 46
-42 43 -53 -7 -75 -134 -38 -216 l19 -43 -24 -11 c-29 -13 -32 -43 -9 -76 18
-26 46 -28 84 -6 26 16 29 16 56 -3 58 -42 149 -54 209 -29 81 34 3 116 -111
116 -52 0 -57 14 -10 34 40 17 80 66 101 125 20 57 19 77 -5 101 -23 23 -21
23 -80 5z"/>
<path d="M1454 1682 c-6 -4 -16 -16 -22 -27 -16 -32 6 -70 102 -171 190 -202
446 -342 736 -401 99 -20 348 -20 457 0 270 50 505 171 695 359 62 61 78 82
78 106 0 32 -27 62 -56 62 -10 0 -64 -41 -119 -91 -123 -111 -154 -133 -279
-197 -180 -93 -341 -132 -546 -132 -195 0 -367 41 -543 131 -132 67 -194 114
-325 246 -119 120 -146 137 -178 115z"/>
</g>
</svg>