<?xml version="1.0" standalone="no"?>
<!DOCTYPE svg PUBLIC "-//W3C//DTD SVG 20010904//EN"
 "http://www.w3.org/TR/2001/REC-SVG-20010904/DTD/svg10.dtd">
<svg version="1.0" xmlns="http://www.w3.org/2000/svg"
 width="223.000000pt" height="188.000000pt" viewBox="0 0 223.000000 188.000000"
 preserveAspectRatio="xMidYMid meet">

<g transform="translate(0.000000,188.000000) scale(0.100000,-0.100000)"
fill="#000000" stroke="none">
<path d="M1085 1723 c-11 -2 -30 -12 -42 -21 -12 -9 -212 -327 -445 -707 -411
-671 -422 -691 -423 -741 0 -38 5 -58 20 -74 45 -51 25 -50 920 -50 920 0 885
-2 925 62 42 66 46 58 -405 793 -229 374 -424 688 -433 699 -17 18 -74 47 -89
45 -4 -1 -17 -4 -28 -6z m425 -806 l387 -632 -394 -3 c-217 -1 -570 -1 -784 0
l-389 3 376 615 c440 720 404 663 412 656 3 -4 180 -291 392 -639z"/>
<path d="M1046 1156 c-15 -14 -26 -37 -26 -51 0 -39 44 -79 78 -70 39 9 56 30
56 70 0 65 -64 95 -108 51z"/>
<path d="M925 965 c-47 -16 -105 -78 -105 -111 0 -28 5 -32 278 -189 122 -70
222 -130 222 -134 0 -3 -12 -24 -25 -46 -29 -47 -31 -68 -9 -89 13 -13 44 -16
178 -16 145 0 165 2 179 18 10 10 17 24 17 31 0 17 -155 274 -174 290 -24 20
-50 4 -81 -49 -16 -28 -32 -50 -36 -50 -4 0 -43 21 -87 47 l-81 47 -36 88
c-20 48 -45 99 -57 113 -41 52 -118 74 -183 50z"/>
<path d="M730 580 c-66 -147 -71 -182 -29 -195 31 -10 53 16 90 107 19 44 39
82 46 85 6 3 39 -14 72 -37 61 -41 61 -41 61 -90 0 -40 4 -51 21 -60 16 -9 26
-8 45 5 21 14 24 22 24 83 0 37 -4 72 -8 78 -6 10 -247 164 -256 164 -2 0 -31
-63 -66 -140z"/>
</g>
</svg>
